#Comment line ignore any data following # character 
#Hierarchical Translation and Rotation (.htr) file 
[Header]	
#Header keywords are followed by a single value 
FileType HTR		#Single word string
DataType HTRS		#Translation followed by rotation and scale data
FileVersion 1		#integer
NumSegments 64		#integer
NumFrames 3		#integer
DataFrameRate 30		#integer, data frame rate in this file
EulerRotationOrder ZYX
CalibrationUnits mm
RotationUnits Degrees
GlobalAxisofGravity Y
BoneLengthAxis Y
ScaleFactor 1.00
[SegmentNames&Hierarchy]
#CHILD	PARENT
Pinger_Root GLOBAL
Pelvis Pinger_Root
L_Hip Pelvis
R_Hip Pelvis
Rear_Leg01 Pelvis
Spine1 Pelvis
L_Leg01 L_Hip
L_Leg02 L_Leg01
L_Leg03 L_Leg02
L_Foot L_Leg03
L_Toe1_01 L_Foot
L_Toe2_01 L_Foot
L_Toe3_01 L_Foot
planeAlignerLeft L_Foot
L_Toe1_02 L_Toe1_01
L_Toe1_03 L_Toe1_02
L_Toe2_02 L_Toe2_01
L_Toe2_03 L_Toe2_02
L_Toe3_02 L_Toe3_01
L_Toe3_03 L_Toe3_02
planeLockWeightLeft planeAlignerLeft
R_Leg01 R_Hip
R_Leg02 R_Leg01
R_Leg03 R_Leg02
R_Foot R_Leg03
planeAlignerRight R_Foot
R_Toe1_01 R_Foot
R_Toe2_01 R_Foot
R_Toe3_01 R_Foot
planeLockWeightRight planeAlignerRight
R_Toe1_02 R_Toe1_01
R_Toe1_03 R_Toe1_02
R_Toe2_02 R_Toe2_01
R_Toe2_03 R_Toe2_02
R_Toe3_02 R_Toe3_01
R_Toe3_03 R_Toe3_02
Rear_Leg02 Rear_Leg01
Rear_Leg03 Rear_Leg02
Rear_Leg04 Rear_Leg03
Rear_Foot Rear_Leg04
planeAlignerCenter Rear_Foot
Rear_Toe1_01 Rear_Foot
Rear_Toe2_01 Rear_Foot
Rear_Toe3_01 Rear_Foot
planeLockWeightCenter planeAlignerCenter
Rear_Toe1_02 Rear_Toe1_01
Rear_Toe1_03 Rear_Toe1_02
Rear_Toe2_02 Rear_Toe2_01
Rear_Toe2_03 Rear_Toe2_02
Rear_Toe3_02 Rear_Toe3_01
Rear_Toe3_03 Rear_Toe3_02
Back_Bone Spine1
Head Spine1
Motor_Bone Back_Bone
Ping_Mechanism Back_Bone
BN_LookIK Head
bottomMouth Head
L_Mouth01 Head
L_mouthFront Head
mouthGun Head
R_Mouth01 Head
R_mouthFront Head
TopMouth Head
weapon_bone Head
[BasePosition]
#SegmentName Tx, Ty, Tz, Rx, Ry, Rz, BoneLength
Pinger_Root 0.000000 0.000000 0.000000 -90.000000 0.000000 0.000000 10.000000 
Pelvis 0.000000 0.000000 0.000000 0.000000 0.000000 0.000000 10.000000 
L_Hip 0.000000 0.000000 0.000000 0.000000 0.000000 0.000000 10.000000 
R_Hip 0.000000 0.000000 0.000000 0.000000 0.000000 0.000000 10.000000 
Rear_Leg01 0.000000 0.000000 0.000000 0.000000 0.000000 0.000000 10.000000 
Spine1 0.000000 0.000000 0.000000 0.000000 0.000000 0.000000 10.000000 
L_Leg01 0.000000 0.000000 0.000000 0.000000 0.000000 0.000000 10.000000 
L_Leg02 0.000000 0.000000 0.000000 0.000000 0.000000 0.000000 10.000000 
L_Leg03 0.000000 0.000000 0.000000 0.000000 0.000000 0.000000 10.000000 
L_Foot 0.000000 0.000000 0.000000 0.000000 0.000000 0.000000 10.000000 
L_Toe1_01 0.000000 0.000000 0.000000 0.000000 0.000000 0.000000 10.000000 
L_Toe2_01 0.000000 0.000000 0.000000 0.000000 0.000000 0.000000 10.000000 
L_Toe3_01 0.000000 0.000000 0.000000 0.000000 0.000000 0.000000 10.000000 
planeAlignerLeft 0.000000 0.000000 0.000000 0.000000 0.000000 0.000000 10.000000 
L_Toe1_02 0.000000 0.000000 0.000000 0.000000 0.000000 0.000000 10.000000 
L_Toe1_03 0.000000 0.000000 0.000000 0.000000 0.000000 0.000000 10.000000 
L_Toe2_02 0.000000 0.000000 0.000000 0.000000 0.000000 0.000000 10.000000 
L_Toe2_03 0.000000 0.000000 0.000000 0.000000 0.000000 0.000000 10.000000 
L_Toe3_02 0.000000 0.000000 0.000000 0.000000 0.000000 0.000000 10.000000 
L_Toe3_03 0.000000 0.000000 0.000000 0.000000 0.000000 0.000000 10.000000 
planeLockWeightLeft 0.000000 0.000000 0.000000 0.000000 0.000000 0.000000 10.000000 
R_Leg01 0.000000 0.000000 0.000000 0.000000 0.000000 0.000000 10.000000 
R_Leg02 0.000000 0.000000 0.000000 0.000000 0.000000 0.000000 10.000000 
R_Leg03 0.000000 0.000000 0.000000 0.000000 0.000000 0.000000 10.000000 
R_Foot 0.000000 0.000000 0.000000 0.000000 0.000000 0.000000 10.000000 
planeAlignerRight 0.000000 0.000000 0.000000 0.000000 0.000000 0.000000 10.000000 
R_Toe1_01 0.000000 0.000000 0.000000 0.000000 0.000000 0.000000 10.000000 
R_Toe2_01 0.000000 0.000000 0.000000 0.000000 0.000000 0.000000 10.000000 
R_Toe3_01 0.000000 0.000000 0.000000 0.000000 0.000000 0.000000 10.000000 
planeLockWeightRight 0.000000 0.000000 0.000000 0.000000 0.000000 0.000000 10.000000 
R_Toe1_02 0.000000 0.000000 0.000000 0.000000 0.000000 0.000000 10.000000 
R_Toe1_03 0.000000 0.000000 0.000000 0.000000 0.000000 0.000000 10.000000 
R_Toe2_02 0.000000 0.000000 0.000000 0.000000 0.000000 0.000000 10.000000 
R_Toe2_03 0.000000 0.000000 0.000000 0.000000 0.000000 0.000000 10.000000 
R_Toe3_02 0.000000 0.000000 0.000000 0.000000 0.000000 0.000000 10.000000 
R_Toe3_03 0.000000 0.000000 0.000000 0.000000 0.000000 0.000000 10.000000 
Rear_Leg02 0.000000 0.000000 0.000000 0.000000 0.000000 0.000000 10.000000 
Rear_Leg03 0.000000 0.000000 0.000000 0.000000 0.000000 0.000000 10.000000 
Rear_Leg04 0.000000 0.000000 0.000000 0.000000 0.000000 0.000000 10.000000 
Rear_Foot 0.000000 0.000000 0.000000 0.000000 0.000000 0.000000 10.000000 
planeAlignerCenter 0.000000 0.000000 0.000000 0.000000 0.000000 0.000000 10.000000 
Rear_Toe1_01 0.000000 0.000000 0.000000 0.000000 0.000000 0.000000 10.000000 
Rear_Toe2_01 0.000000 0.000000 0.000000 0.000000 0.000000 0.000000 10.000000 
Rear_Toe3_01 0.000000 0.000000 0.000000 0.000000 0.000000 0.000000 10.000000 
planeLockWeightCenter 0.000000 0.000000 0.000000 0.000000 0.000000 0.000000 10.000000 
Rear_Toe1_02 0.000000 0.000000 0.000000 0.000000 0.000000 0.000000 10.000000 
Rear_Toe1_03 0.000000 0.000000 0.000000 0.000000 0.000000 0.000000 10.000000 
Rear_Toe2_02 0.000000 0.000000 0.000000 0.000000 0.000000 0.000000 10.000000 
Rear_Toe2_03 0.000000 0.000000 0.000000 0.000000 0.000000 0.000000 10.000000 
Rear_Toe3_02 0.000000 0.000000 0.000000 0.000000 0.000000 0.000000 10.000000 
Rear_Toe3_03 0.000000 0.000000 0.000000 0.000000 0.000000 0.000000 10.000000 
Back_Bone 0.000000 0.000000 0.000000 0.000000 0.000000 0.000000 10.000000 
Head 0.000000 0.000000 0.000000 0.000000 0.000000 0.000000 10.000000 
Motor_Bone 0.000000 0.000000 0.000000 0.000000 0.000000 0.000000 10.000000 
Ping_Mechanism 0.000000 0.000000 0.000000 0.000000 0.000000 0.000000 10.000000 
BN_LookIK 0.000000 0.000000 0.000000 0.000000 0.000000 0.000000 10.000000 
bottomMouth 0.000000 0.000000 0.000000 0.000000 0.000000 0.000000 10.000000 
L_Mouth01 0.000000 0.000000 0.000000 0.000000 0.000000 0.000000 10.000000 
L_mouthFront 0.000000 0.000000 0.000000 0.000000 0.000000 0.000000 10.000000 
mouthGun 0.000000 0.000000 0.000000 0.000000 0.000000 0.000000 10.000000 
R_Mouth01 0.000000 0.000000 0.000000 0.000000 0.000000 0.000000 10.000000 
R_mouthFront 0.000000 0.000000 0.000000 0.000000 0.000000 0.000000 10.000000 
TopMouth 0.000000 0.000000 0.000000 0.000000 0.000000 0.000000 10.000000 
weapon_bone 0.000000 0.000000 0.000000 0.000000 0.000000 0.000000 10.000000 
#Beginning of Data. Separated by tabs
#Fr	Tx	Ty	Tz	Rx	Ry	Rz	SF
[Pinger_Root]
11 0.000000 0.000000 0.000000 -0.000075 -0.000000 -0.000020 0.000000
12 0.000000 0.000000 0.000000 -0.000075 -0.000000 -0.000020 0.000000
13 0.000000 0.000000 0.000000 -0.000075 -0.000000 -0.000020 0.000000
[Pelvis]
11 287.792877 967.806152 4647.505371 -175.886124 -88.744141 175.806824 4755.920410
12 341.384277 944.137756 4651.781738 173.865463 -86.659241 -172.786713 4758.887695
13 373.510010 913.137207 4674.496094 173.643845 -85.008018 -171.458298 4777.472656
[L_Hip]
11 5.766392 125.831482 872.656799 160.903244 -63.792027 113.413033 881.701050
12 5.766392 125.831482 872.656799 161.685333 -66.490936 111.640984 881.701050
13 5.766392 125.831482 872.656799 162.794800 -69.172028 109.553047 881.701050
[R_Hip]
11 5.765438 125.836372 -872.654907 33.586254 66.429230 120.702110 881.699829
12 5.765438 125.836372 -872.654907 31.830826 68.872940 119.121521 881.699829
13 5.765438 125.836372 -872.654907 29.647570 71.294716 117.111748 881.699829
[Rear_Leg01]
11 -192.298416 -925.602966 -0.001907 -165.197800 -7.386586 -158.826370 945.367432
12 -192.298416 -925.602966 -0.001907 -165.666306 -11.478075 -155.063431 945.367432
13 -192.298416 -925.602966 -0.001907 -166.260803 -14.738523 -151.684769 945.367432
[Spine1]
11 290.604584 5.007505 0.000477 0.747962 2.000373 21.172411 290.647736
12 290.604584 5.007505 0.000477 0.475385 4.221190 21.348999 290.647736
13 290.604584 5.007505 0.000477 0.082127 6.022858 21.300402 290.647736
[L_Leg01]
11 761.932007 -0.002384 -0.069261 47.204723 -30.095272 -37.078156 761.932068
12 761.932007 -0.002384 -0.069261 52.603008 -33.965775 -35.623230 761.932068
13 761.932007 -0.002384 -0.069261 61.886707 -25.919512 -43.838516 761.932068
[L_Leg02]
11 1441.140503 -0.000954 -0.000715 1.143777 -0.135935 -117.938820 1441.140503
12 1441.140503 -0.000954 -0.000715 3.066210 -0.126120 -130.842010 1441.140503
13 1441.140503 -0.000954 -0.000715 4.033145 0.232634 -130.080887 1441.140503
[L_Leg03]
11 1686.963989 -0.000715 -0.000954 -0.014026 0.006678 114.899681 1686.963989
12 1686.963989 -0.000715 -0.000954 -0.036441 0.017047 120.106544 1686.963989
13 1686.963989 -0.000715 -0.000954 -0.057655 0.029912 126.253067 1686.963989
[L_Foot]
11 3041.570068 -30.715107 11.297464 -4.233432 13.973567 45.104023 3041.746094
12 3041.570068 -30.715107 11.297464 -8.643100 13.947647 42.370361 3041.746094
13 3041.570068 -30.715107 11.297464 -10.894381 15.720934 49.991398 3041.746094
[L_Toe1_01]
11 -188.216690 -224.732346 -21.137953 94.924049 -9.961130 -173.935120 293.899567
12 -188.216690 -224.732346 -21.137953 93.026497 -8.356189 -169.551819 293.899567
13 -188.216690 -224.732346 -21.137953 91.202660 -6.230480 -165.029572 293.899567
[L_Toe2_01]
11 200.746536 -219.926590 148.838394 -84.436241 -23.331921 -49.785755 332.896027
12 200.746536 -219.926590 148.838394 -82.281403 -20.889914 -50.930882 332.896027
13 200.746536 -219.926590 148.838394 -80.638741 -18.428547 -51.036060 332.896027
[L_Toe3_01]
11 188.832520 -219.859131 -191.078659 -103.339294 10.199533 -58.986561 347.140900
12 188.832520 -219.859131 -191.078659 -103.845695 12.195603 -57.577465 347.140900
13 188.832520 -219.859131 -191.078659 -104.305473 14.203259 -56.175018 347.140900
[planeAlignerLeft]
11 164.601761 -609.089294 146.461807 169.721222 -81.204628 93.342026 647.714905
12 113.615471 -626.102295 112.776833 170.071472 -83.152954 94.516716 646.243896
13 56.280804 -640.075623 72.881355 170.092560 -85.101753 96.017372 646.665344
[L_Toe1_02]
11 413.761139 0.000477 0.000000 0.001403 -23.526918 0.001403 413.761139
12 413.761139 0.000477 0.000000 0.001399 -24.021992 0.001399 413.761139
13 413.761139 0.000477 0.000000 0.001393 -24.779009 0.001393 413.761139
[L_Toe1_03]
11 464.317322 0.000358 -0.000089 0.010193 76.776886 0.010193 464.317322
12 464.317322 0.000358 -0.000089 0.008134 73.408363 0.008134 464.317322
13 464.317322 0.000358 -0.000089 0.006301 68.530746 0.006301 464.317322
[L_Toe2_02]
11 342.235809 -0.000477 0.000238 -0.002417 -57.873505 -0.002417 342.235809
12 342.235809 -0.000477 0.000238 -0.000590 -64.509018 -0.000590 342.235809
13 342.235809 -0.000477 0.000238 0.001190 -71.144485 0.001190 342.235809
[L_Toe2_03]
11 420.210846 -0.000715 0.000000 -0.000257 57.866005 -0.003896 420.210846
12 420.210846 -0.000715 0.000000 -0.001304 68.518791 -0.004863 420.210846
13 420.210846 -0.000715 0.000000 -0.008421 82.117554 -0.008421 420.210846
[L_Toe3_02]
11 329.270111 0.000954 0.000000 0.001180 -78.091049 0.001180 329.270111
12 329.270111 0.000954 0.000000 0.001179 -79.159561 0.001179 329.270111
13 329.270111 0.000954 0.000000 0.001178 -80.227867 0.001178 329.270111
[L_Toe3_03]
11 439.137451 -0.001907 0.000954 -179.980133 86.953156 -179.976639 439.137451
12 439.137451 -0.001907 0.000954 -179.990646 84.063766 -179.987152 439.137451
13 439.137451 -0.001907 0.000954 -179.995422 79.599884 -179.991913 439.137451
[planeLockWeightLeft]
11 259.258423 0.000000 -0.000267 -0.011826 -0.004376 0.005620 259.258423
12 740.740051 0.000305 -0.000076 -0.011826 -0.004376 0.005620 740.740112
13 1000.000000 -0.000610 -0.000343 -0.011826 -0.004376 0.005620 1000.000000
[R_Leg01]
11 761.455627 -0.001907 -0.000358 101.757690 -31.191954 58.747543 761.455688
12 761.455627 -0.001907 -0.000358 104.066429 -30.148600 64.450562 761.455688
13 761.455627 -0.001907 -0.000358 105.548462 -27.386770 70.152786 761.455688
[R_Leg02]
11 1441.140625 0.000000 -0.000238 -0.900750 0.083619 -125.517036 1441.140625
12 1441.140625 0.000000 -0.000238 -0.606645 0.097421 -118.947884 1441.140625
13 1441.140625 0.000000 -0.000238 -0.294395 0.076148 -110.386482 1441.140625
[R_Leg03]
11 1686.963989 0.000954 0.001431 0.020652 -0.006522 115.786240 1686.963989
12 1686.963989 0.000954 0.001431 0.009158 -0.001837 112.679695 1686.963989
13 1686.963989 0.000954 0.001431 0.002311 -0.000409 110.087090 1686.963989
[R_Foot]
11 3041.560059 -30.531288 -11.204481 14.834948 -32.050232 52.721512 3041.734131
12 3041.560059 -30.531288 -11.204481 11.537981 -30.430351 53.145000 3041.734131
13 3041.560059 -30.531288 -11.204481 9.005715 -28.883146 52.436939 3041.734131
[planeAlignerRight]
11 -38.860489 -649.659485 -81.379730 0.000000 -89.951546 -90.004936 655.888916
12 -6.651946 -578.882874 -13.968266 0.000000 -89.965736 -90.004951 579.089600
13 25.559053 -517.453186 53.439415 0.000000 -89.951546 -90.004936 520.832825
[R_Toe1_01]
11 -188.383347 -224.864899 21.052242 92.242912 6.235619 -160.692398 294.101532
12 -188.383347 -224.864899 21.052242 92.016716 3.126999 -167.825256 294.101532
13 -188.383347 -224.864899 21.052242 92.416588 -0.383816 -173.602402 294.101532
[R_Toe2_01]
11 200.637817 -220.002121 -148.787384 -99.415230 18.203598 -48.732563 332.857574
12 200.637817 -220.002121 -148.787384 -97.518440 14.911087 -41.780514 332.857574
13 200.637817 -220.002121 -148.787384 -96.041405 11.040120 -36.108120 332.857574
[R_Toe3_01]
11 188.606735 -220.092957 191.126343 -76.776169 -11.843482 -47.454174 347.192566
12 188.606735 -220.092957 191.126343 -76.991951 -16.215641 -43.096249 347.192566
13 188.606735 -220.092957 191.126343 -76.795471 -20.036039 -40.116451 347.192566
[planeLockWeightRight]
11 999.999512 0.000305 -0.000250 -0.011823 -0.004379 -0.000027 999.999512
12 999.999512 0.000305 -0.000281 -0.011823 -0.004379 -0.000027 999.999512
13 999.999451 0.000305 -0.000311 -0.011823 -0.004379 -0.000027 999.999451
[R_Toe1_02]
11 413.762085 0.000477 -0.000119 0.001398 -24.113012 0.001398 413.762085
12 413.762085 0.000477 -0.000119 0.001417 -21.833700 0.001417 413.762085
13 413.762085 0.000477 -0.000119 0.001437 -19.554384 0.001437 413.762085
[R_Toe1_03]
11 464.317810 0.000000 0.001088 0.007890 72.891045 0.007890 464.317810
12 464.317810 0.000000 0.001088 -0.012607 83.930557 -0.009105 464.317810
13 464.317810 0.000000 0.001088 -179.969696 87.945473 -179.966202 464.317810
[R_Toe2_02]
11 342.234741 -0.000954 0.000238 -0.002339 -76.672180 -0.002339 342.234741
12 342.234741 -0.000954 0.000238 -0.002336 -78.071915 -0.002336 342.234741
13 342.234741 -0.000954 0.000238 -0.002335 -78.607826 -0.002335 342.234741
[R_Toe2_03]
11 420.210846 0.000715 -0.000268 -179.991302 80.493370 -179.994812 420.210846
12 420.210846 0.000715 -0.000268 -179.993851 74.977104 -179.997375 420.210846
13 420.210846 0.000715 -0.000268 -179.994522 72.142776 -179.998062 420.210846
[R_Toe3_02]
11 329.270355 -0.000477 -0.000954 0.001176 -82.241158 0.001176 329.270355
12 329.270355 -0.000477 -0.000954 0.001176 -82.018074 0.001176 329.270355
13 329.270355 -0.000477 -0.000954 0.001177 -81.346519 0.001177 329.270355
[R_Toe3_03]
11 439.137939 0.000238 0.001431 -179.998367 70.565895 -179.994827 439.137939
12 439.137939 0.000238 0.001431 -179.998154 71.751678 -179.994614 439.137939
13 439.137939 0.000238 0.001431 -179.997238 75.420319 -179.993713 439.137939
[Rear_Leg02]
11 1162.777710 -0.029802 0.005960 13.355382 -12.223022 -130.531143 1162.777710
12 1162.777710 -0.029802 0.005960 14.864976 -13.745106 -125.490875 1162.777710
13 1162.777710 -0.029802 0.005960 15.993066 -15.555763 -119.362785 1162.777710
[Rear_Leg03]
11 607.192505 -0.013351 -0.073195 0.010144 -0.005767 75.592369 607.192505
12 607.192505 -0.013351 -0.073195 0.010141 -0.005772 75.651817 607.192505
13 607.192505 -0.013351 -0.073195 0.010168 -0.005725 75.122452 607.192505
[Rear_Leg04]
11 995.874512 -0.020504 -0.011921 -0.042408 -0.019139 85.577629 995.874573
12 995.874512 -0.020504 -0.011921 -0.042355 -0.019256 85.261276 995.874573
13 995.874512 -0.020504 -0.011921 -0.045825 -0.016384 84.070442 995.874573
[Rear_Foot]
11 3096.176270 -0.067472 -0.041425 -92.330696 71.935387 65.230644 3096.176270
12 3096.176270 -0.067472 -0.041425 -93.354431 69.793785 62.655437 3096.176270
13 3096.176270 -0.067472 -0.041425 -92.863243 67.778198 61.398438 3096.176270
[planeAlignerCenter]
11 14.693303 68.563461 -556.654419 12.240772 -0.001473 179.998184 561.053406
12 35.016365 67.907257 -560.135681 12.240772 -0.001473 179.998184 565.322449
13 58.313549 66.548729 -566.760010 12.240772 -0.001473 179.998184 573.625366
[Rear_Toe1_01]
11 0.653352 83.966492 -371.173737 -0.204154 28.311598 89.431229 380.553192
12 0.653352 83.966492 -371.173737 -0.620888 28.484673 88.468430 380.553192
13 0.653352 83.966492 -371.173737 -1.199489 28.951008 87.171234 380.553192
[Rear_Toe2_01]
11 178.200760 -294.826019 -362.060547 -6.281992 21.834064 -62.737141 499.765686
12 178.200760 -294.826019 -362.060547 -5.915022 22.187897 -61.760231 499.765686
13 178.200760 -294.826019 -362.060547 -5.498131 22.822096 -60.604877 499.765686
[Rear_Toe3_01]
11 -153.359680 -308.780914 -362.060852 4.220998 21.300026 -113.321381 499.952881
12 -153.359680 -308.780914 -362.060852 4.242398 21.305658 -112.400841 499.952881
13 -153.359680 -308.780914 -362.060852 4.284055 21.616280 -111.140221 499.952881
[planeLockWeightCenter]
11 -0.000090 0.000305 0.000000 -0.011814 -0.004373 -0.000015 0.000318
12 -0.000089 0.000305 0.000000 -0.011814 -0.004373 -0.000015 0.000318
13 -0.000088 0.000305 0.000000 -0.011814 -0.004373 -0.000015 0.000318
[Rear_Toe1_02]
11 379.707825 0.194073 0.000477 -0.000767 -33.624729 0.000838 379.707855
12 379.707825 0.194073 0.000477 -0.000767 -33.624729 0.000838 379.707855
13 379.707825 0.194073 0.000477 -0.000767 -33.624729 0.000838 379.707855
[Rear_Toe1_03]
11 500.129700 0.165701 0.000119 -0.004263 63.039063 -0.000668 500.129761
12 500.129700 0.165701 0.000119 -0.004249 62.872669 -0.000652 500.129761
13 500.129700 0.165701 0.000119 -0.004195 62.211288 -0.000592 500.129761
[Rear_Toe2_02]
11 340.494507 0.000238 -0.000954 0.001178 -80.042976 0.001178 340.494507
12 340.494507 0.000238 -0.000954 0.001179 -79.229195 0.001179 340.494507
13 340.494507 0.000238 -0.000954 0.001180 -77.843819 0.001180 340.494507
[Rear_Toe2_03]
11 433.103577 0.000000 0.000238 0.068208 88.028107 0.068208 433.103546
12 433.103577 0.000000 0.000238 0.033824 86.023048 0.033824 433.103546
13 433.103577 0.000000 0.000238 0.020604 83.465950 0.020604 433.103546
[Rear_Toe3_02]
11 340.494141 -0.000358 -0.000477 0.001178 -79.589165 0.001178 340.494171
12 340.494141 -0.000358 -0.000477 0.001178 -80.272308 0.001178 340.494171
13 340.494141 -0.000358 -0.000477 0.001177 -80.955475 0.001177 340.494171
[Rear_Toe3_03]
11 433.103577 0.001431 -0.000238 -0.023155 86.922729 -0.019657 433.103546
12 433.103577 0.001431 -0.000238 -0.038484 88.206924 -0.034987 433.103546
13 433.103577 0.001431 -0.000238 0.000000 89.598465 0.003493 433.103546
[Back_Bone]
11 1312.175781 -701.934692 0.000954 -0.275151 0.640277 -84.977081 1488.125488
12 1312.175781 -701.934692 0.000954 -0.541062 0.724812 -84.894485 1488.125488
13 1312.175781 -701.934692 0.000954 -0.806862 0.809730 -84.812279 1488.125488
[Head]
11 1406.159424 809.709290 0.001431 -0.822993 0.027848 15.364638 1622.625488
12 1406.159424 809.709290 0.001431 -0.994421 0.231980 16.404655 1622.625488
13 1406.159424 809.709290 0.001431 -1.162162 0.439245 17.444349 1622.625488
[Motor_Bone]
11 1158.364380 -417.834747 0.000477 -0.811084 0.098215 -105.891487 1231.419434
12 1158.364380 -417.834747 0.000477 -0.882653 0.100442 -105.889076 1231.419434
13 1158.364380 -417.834747 0.000477 -1.083235 0.103882 -105.884850 1231.419434
[Ping_Mechanism]
11 1216.991211 -433.608368 -6.529501 0.000103 -0.000053 82.120995 1291.946777
12 1213.888184 -431.599121 -16.886833 0.000103 -0.000053 82.120995 1288.443726
13 1212.906982 -430.111664 -25.190041 0.000103 -0.000053 82.120995 1287.157227
[BN_LookIK]
11 193.241119 1380.371704 -0.002861 0.000000 89.965736 -31.038179 1393.832153
12 193.241119 1380.371704 -0.002861 0.000000 89.965736 -31.038179 1393.832153
13 193.241119 1380.371704 -0.002861 0.000000 89.965736 -31.038179 1393.832153
[bottomMouth]
11 -435.092926 615.759399 -0.000954 -0.000022 0.000016 73.527184 753.966492
12 -435.092926 615.759399 -0.000954 -0.000022 0.000016 73.527184 753.966492
13 -435.092926 615.759399 -0.000954 -0.000022 0.000016 73.527184 753.966492
[L_Mouth01]
11 554.440979 7.658243 838.222046 150.204178 23.759130 109.605339 1005.027161
12 554.440979 7.658243 838.222046 150.204178 23.759130 109.605339 1005.027161
13 554.440979 7.658243 838.222046 150.204178 23.759130 109.605339 1005.027161
[L_mouthFront]
11 551.629089 934.514771 339.150421 0.000081 2.804060 79.119301 1136.941284
12 551.629089 934.514771 339.150421 0.000081 2.804060 79.119301 1136.941284
13 551.629089 934.514771 339.150421 0.000081 2.804060 79.119301 1136.941284
[mouthGun]
11 55.332661 1627.420898 0.000000 0.000023 0.000009 -11.038128 1628.361328
12 55.332661 1627.420898 0.000000 0.000023 0.000009 -11.038128 1628.361328
13 55.332661 1627.420898 0.000000 0.000023 0.000009 -11.038128 1628.361328
[R_Mouth01]
11 554.442383 7.659197 -838.223938 29.795891 -23.759109 109.605331 1005.029541
12 554.442383 7.659197 -838.223938 29.795891 -23.759109 109.605331 1005.029541
13 554.442383 7.659197 -838.223938 29.795891 -23.759109 109.605331 1005.029541
[R_mouthFront]
11 551.629089 934.514282 -339.151367 0.000029 -2.803930 79.119133 1136.941162
12 551.629089 934.514282 -339.151367 0.000029 -2.803930 79.119133 1136.941162
13 551.629089 934.514282 -339.151367 0.000029 -2.803930 79.119133 1136.941162
[TopMouth]
11 461.269867 -56.106091 -0.008583 -0.000059 -0.000268 92.025169 464.669525
12 461.269867 -56.106091 -0.008583 -0.000059 -0.000268 92.025169 464.669525
13 461.269867 -56.106091 -0.008583 -0.000059 -0.000268 92.025169 464.669525
[weapon_bone]
11 -987.239868 1448.372803 0.001431 0.000000 89.965736 -31.038221 1752.833740
12 -987.239868 1448.372803 0.001431 0.000000 89.965736 -31.038221 1752.833740
13 -987.239868 1448.372803 0.001431 0.000000 89.965736 -31.038221 1752.833740
